<svg xmlns="http://www.w3.org/2000/svg" width="360" height="360" viewBox="0 0 360 360" version="1.1"><path d="M 137 95 L 137 98 151.500 98 L 166 98 166 95 L 166 92 151.500 92 L 137 92 137 95 M 136 116.500 C 136 122.275, 136.208 127, 136.463 127 C 136.717 127, 138.741 124.326, 140.960 121.058 C 145.565 114.278, 148.361 111.986, 151.973 112.032 C 155.232 112.073, 156.697 113.305, 161.446 120 C 163.592 123.025, 165.719 125.927, 166.174 126.450 C 166.628 126.972, 167 122.585, 167 116.700 L 167 106 151.500 106 L 136 106 136 116.500 M 146.785 128.993 C 143.485 133.327, 120.187 165.615, 99.156 195 C 95.023 200.775, 90.804 206.625, 89.781 208 C 87.311 211.321, 81 221.095, 81 221.600 C 81 221.820, 82.125 222, 83.500 222 C 84.875 222, 86 222.450, 86 223 C 86 223.550, 84.677 224, 83.059 224 C 81.441 224, 79.840 223.550, 79.500 223 C 79.160 222.450, 78.426 222, 77.870 222 C 77.313 222, 77.564 222.707, 78.429 223.571 C 79.293 224.436, 80 225.561, 80 226.071 C 80 226.582, 80.697 227, 81.548 227 C 82.908 227, 83.028 229.075, 82.530 244 C 82.027 259.065, 82.524 276.213, 84.846 323.958 C 85.491 337.224, 85.536 337.425, 88 338.108 C 89.375 338.489, 118.705 338.845, 153.179 338.900 C 207.759 338.987, 216.052 338.805, 217.363 337.494 C 218.627 336.230, 224.303 335.919, 252.684 335.559 C 271.283 335.323, 287.288 335.100, 288.250 335.065 C 289.835 335.006, 290 333.600, 290 320.113 L 290 305.225 281.250 305.363 C 276.438 305.438, 261.209 305.387, 247.408 305.250 L 222.317 305 221.220 301.250 C 220.470 298.683, 220.294 286.472, 220.664 262.536 C 221.129 232.423, 221.420 227.413, 222.764 226.430 C 223.623 225.803, 224.037 224.662, 223.686 223.895 C 221.873 219.938, 212.954 206.953, 194.071 180.777 C 191.007 176.530, 186.139 169.780, 183.253 165.777 C 180.368 161.775, 174.743 153.973, 170.753 148.441 C 159.314 132.577, 152.584 124.065, 151.500 124.090 C 150.950 124.103, 148.828 126.310, 146.785 128.993 M 153.156 157.500 C 153.081 163.428, 153.098 163.466, 154.607 160.683 C 155.612 158.830, 155.806 157.462, 155.175 156.683 C 154.647 156.032, 153.994 154.600, 153.724 153.500 C 153.453 152.400, 153.198 154.200, 153.156 157.500 M 146.754 153.689 C 145.356 154.054, 145.216 154.536, 146.054 156.101 C 146.629 157.176, 147.523 157.795, 148.039 157.476 C 148.555 157.157, 148.747 157.495, 148.466 158.227 C 148.186 158.959, 148.678 160.444, 149.560 161.529 C 151.004 163.305, 151.106 163.319, 150.582 161.668 C 150.262 160.661, 150 158.298, 150 156.418 C 150 154.538, 149.662 153.052, 149.250 153.116 C 148.838 153.180, 147.714 153.437, 146.754 153.689 M 142.517 158.125 C 142.919 159.431, 142.878 160.148, 142.426 159.719 C 141.281 158.630, 139.163 162.906, 139.745 165.132 C 140.129 166.602, 141.160 166.938, 145.023 166.851 L 149.823 166.743 146.832 161.881 C 143.372 156.259, 141.419 154.558, 142.517 158.125 M 156.631 161.500 L 152.980 167 159.490 167 C 163.454 167, 166 166.581, 166 165.928 C 166 164.912, 161.105 156, 160.547 156 C 160.402 156, 158.640 158.475, 156.631 161.500 M 142 170 C 140.800 170.776, 140.974 170.972, 142.872 170.985 C 144.860 170.998, 145.044 171.242, 144.009 172.489 C 143.329 173.308, 142.388 173.740, 141.916 173.448 C 141.444 173.157, 140.758 174.174, 140.391 175.709 C 140.024 177.244, 139.281 179.063, 138.740 179.750 C 137.988 180.704, 138.672 181.003, 141.628 181.014 C 143.757 181.021, 146.512 181.299, 147.750 181.630 C 149.917 182.211, 150 181.990, 150 175.617 L 150 169 146.750 169.015 C 144.963 169.024, 142.825 169.467, 142 170 M 153 175.548 L 153 182.095 159.154 181.798 L 165.307 181.500 165.729 175.250 L 166.151 169 159.576 169 L 153 169 153 175.548 M 147 176 C 147 176.550, 147.450 177, 148 177 C 148.550 177, 149 176.550, 149 176 C 149 175.450, 148.550 175, 148 175 C 147.450 175, 147 175.450, 147 176 M 154 175.941 C 154 176.459, 154.450 177.160, 155 177.500 C 155.550 177.840, 156 177.416, 156 176.559 C 156 175.702, 155.550 175, 155 175 C 154.450 175, 154 175.423, 154 175.941 M 138.986 185.250 C 138.979 185.938, 138.682 187.588, 138.326 188.919 C 137.797 190.893, 137.983 191.220, 139.339 190.700 C 140.253 190.350, 141 190.499, 141 191.031 C 141 191.564, 140.602 192, 140.117 192 C 139.631 192, 139.018 193.125, 138.755 194.500 C 138.306 196.852, 138.531 197, 142.557 197 C 144.911 197, 147.548 197.273, 148.418 197.607 C 149.769 198.125, 150 197.177, 150 191.107 L 150 184 144.500 184 C 140.774 184, 138.996 184.403, 138.986 185.250 M 153 191.125 L 153 198.250 156.125 197.625 C 157.844 197.281, 160.769 197, 162.625 197 L 166 197 166 190.500 L 166 184 159.500 184 L 153 184 153 191.125 M 147 191.559 C 147 192.416, 147.450 192.840, 148 192.500 C 148.550 192.160, 149 191.459, 149 190.941 C 149 190.423, 148.550 190, 148 190 C 147.450 190, 147 190.702, 147 191.559 M 154.192 191.075 C 154.389 191.666, 154.978 192.150, 155.500 192.150 C 156.022 192.150, 156.611 191.666, 156.808 191.075 C 157.005 190.484, 156.417 190, 155.500 190 C 154.583 190, 153.995 190.484, 154.192 191.075 M 140 200.525 C 140 200.813, 141.152 201.488, 142.560 202.023 C 144.118 202.615, 144.841 203.449, 144.406 204.153 C 143.930 204.923, 144.133 205.036, 145.015 204.490 C 145.998 203.883, 146.161 204.138, 145.647 205.477 C 145.063 206.999, 145.192 207.085, 146.467 206.027 C 147.729 204.980, 148.137 205.164, 148.927 207.136 C 149.728 209.136, 149.883 208.769, 149.937 204.750 L 150 200 145 200 C 142.250 200, 140 200.236, 140 200.525 M 153.063 204.702 C 153.117 208.738, 153.276 209.126, 154.070 207.145 C 154.774 205.387, 155.454 204.989, 156.756 205.573 C 157.715 206.003, 160.075 206.387, 162 206.427 C 165.238 206.495, 165.500 206.276, 165.500 203.500 C 165.500 200.518, 165.462 200.498, 159.250 200.202 L 153 199.905 153.063 204.702 M 122.563 220.250 C 120.210 225.978, 116.531 241.864, 117.364 242.696 C 118.028 243.359, 144.278 243.506, 179.377 243.043 L 186.255 242.952 185.758 238.726 C 185.485 236.402, 184.050 230.563, 182.570 225.750 L 179.879 217 151.888 217 L 123.898 217 122.563 220.250 M 103.737 221.596 C 102.188 223.146, 104.464 224, 110.142 224 C 114.515 224, 116.054 223.657, 115.754 222.750 C 115.312 221.409, 104.922 220.411, 103.737 221.596 M 188.233 222.200 C 188.521 223.063, 190.572 223.500, 194.333 223.500 C 202.172 223.500, 202.018 221.572, 194.150 221.200 C 189.286 220.970, 187.901 221.204, 188.233 222.200 M 70.441 223.095 C 69.041 225.360, 72.166 228.852, 76.201 229.534 C 78.365 229.900, 80.404 229.929, 80.734 229.599 C 81.064 229.270, 80.535 229, 79.560 229 C 78.368 229, 77.981 228.491, 78.382 227.448 C 78.723 226.558, 78.555 226.157, 77.989 226.507 C 77.445 226.843, 77 226.555, 77 225.868 C 77 225.180, 76.339 225.491, 75.532 226.559 C 74.705 227.652, 74.050 227.954, 74.032 227.250 C 74.014 226.563, 73.351 226, 72.557 226 C 71.653 226, 71.259 225.254, 71.500 224 C 71.926 221.790, 71.482 221.411, 70.441 223.095 M 89.500 223 C 89.840 223.550, 92.368 224, 95.118 224 C 98.197 224, 99.881 223.616, 99.500 223 C 99.160 222.450, 96.632 222, 93.882 222 C 90.803 222, 89.119 222.384, 89.500 223 M 205 223 C 205 223.550, 207.025 224, 209.500 224 C 211.975 224, 214 223.550, 214 223 C 214 222.450, 211.975 222, 209.500 222 C 207.025 222, 205 222.450, 205 223 M 218 223 C 218 223.550, 218.900 224, 220 224 C 221.100 224, 222 223.550, 222 223 C 222 222.450, 221.100 222, 220 222 C 218.900 222, 218 222.450, 218 223 M 231.609 223.422 C 231.931 224.262, 231.509 225.634, 230.671 226.471 C 228.756 228.387, 225.908 227.448, 226.719 225.167 C 227.046 224.250, 226.342 224.696, 225.156 226.158 C 223.970 227.619, 223 229.132, 223 229.519 C 223 230.488, 230.209 229.062, 231.750 227.788 C 233.243 226.555, 233.400 223.365, 232.011 222.507 C 231.448 222.159, 231.275 222.553, 231.609 223.422 M 103.186 256.490 C 101.984 258.019, 101 259.643, 101 260.100 C 101 260.557, 102.350 263.059, 104 265.661 L 107 270.392 106.930 263.946 C 106.891 260.401, 106.525 256.647, 106.116 255.606 C 105.429 253.856, 105.206 253.923, 103.186 256.490 M 109 263.696 L 109 270.392 112 265.661 C 115.513 260.122, 115.423 260.566, 113.429 258.571 C 110.136 255.279, 109 256.594, 109 263.696 M 192.090 259.378 C 191.314 260.320, 190.102 260.869, 189.397 260.599 C 188.691 260.328, 189.325 262.124, 190.807 264.589 L 193.500 269.072 193.815 266.018 C 193.988 264.339, 193.988 261.772, 193.815 260.315 C 193.526 257.881, 193.385 257.805, 192.090 259.378 M 196.792 263.764 C 196.577 266.919, 196.480 269.632, 196.576 269.793 C 196.951 270.417, 201 262.807, 201 261.478 C 201 260.704, 200.141 259.611, 199.092 259.049 C 197.334 258.108, 197.153 258.480, 196.792 263.764 M 97.144 265.750 C 96.098 268.195, 96.125 268.299, 97.388 266.690 C 98.169 265.695, 99.023 265.245, 99.287 265.690 C 100.190 267.220, 98.045 271.048, 95.774 271.960 C 94.025 272.663, 94.940 272.888, 99.741 272.937 L 105.982 273 102.905 268 C 101.213 265.250, 99.489 263, 99.075 263 C 98.660 263, 97.791 264.238, 97.144 265.750 M 114.609 265.509 C 113.724 266.879, 112.273 269.125, 111.385 270.500 L 109.770 273 113.635 272.900 C 116.643 272.823, 116.985 272.656, 115.177 272.147 L 112.854 271.494 115.378 267.775 C 116.766 265.730, 117.523 263.823, 117.060 263.537 C 116.597 263.251, 115.495 264.138, 114.609 265.509 M 186.665 266.326 C 187.044 268.659, 186.705 270.152, 185.531 271.326 C 183.966 272.891, 184.154 273, 188.429 273 C 190.943 273, 193 272.744, 193 272.430 C 193 271.689, 187.024 263, 186.515 263 C 186.301 263, 186.369 264.497, 186.665 266.326 M 199.760 269.038 L 197.019 273 201.510 273 C 206.191 273, 207.511 271.614, 203.915 270.473 C 202.303 269.961, 201.967 269.266, 202.434 267.406 C 203.233 264.222, 202.986 264.373, 199.760 269.038 M 94.131 282 L 94.046 288 100.523 288 L 107 288 107 282 L 107 276 100.607 276 L 94.215 276 94.131 282 M 109 282 L 109 288 115.500 288 C 119.075 288, 121.988 287.663, 121.972 287.250 C 121.957 286.837, 120.395 285.375, 118.500 284 C 114.521 281.112, 114.022 278.329, 117.250 277.031 C 119.033 276.314, 118.410 276.114, 114.250 276.063 L 109 276 109 282 M 185 278.757 C 185 280.273, 184.581 282.973, 184.070 284.757 L 183.140 288 188.570 288 L 194 288 194 282 L 194 276 189.500 276 C 185.255 276, 185 276.156, 185 278.757 M 197 282 L 197 288 201.500 288 C 204.751 288, 206 287.600, 206 286.559 C 206 285.766, 205.543 284.835, 204.984 284.490 C 204.425 284.144, 204.277 283.361, 204.655 282.749 C 205.034 282.137, 205.419 280.368, 205.511 278.818 C 205.670 276.135, 205.471 276, 201.339 276 L 197 276 197 282 M 103.667 281.667 C 102.516 282.817, 102.938 284, 104.500 284 C 105.325 284, 106 283.325, 106 282.500 C 106 280.938, 104.817 280.516, 103.667 281.667 M 110 282.500 C 110 283.417, 110.484 284.005, 111.075 283.808 C 111.666 283.611, 112.150 283.022, 112.150 282.500 C 112.150 281.978, 111.666 281.389, 111.075 281.192 C 110.484 280.995, 110 281.583, 110 282.500 M 191 282.500 C 191 283.325, 191.450 284, 192 284 C 192.550 284, 193 283.325, 193 282.500 C 193 281.675, 192.550 281, 192 281 C 191.450 281, 191 281.675, 191 282.500 M 198 282.500 C 198 283.325, 198.450 284, 199 284 C 199.550 284, 200 283.325, 200 282.500 C 200 281.675, 199.550 281, 199 281 C 198.450 281, 198 281.675, 198 282.500 M 188 290.918 C 181.997 291.553, 181.902 291.682, 181.636 299.500 L 181.500 303.500 187.750 303.798 L 194 304.095 194 297.048 C 194 293.171, 193.887 290.076, 193.750 290.168 C 193.613 290.261, 191.025 290.598, 188 290.918 M 95.432 297.500 L 96.411 304 101.724 304 L 107.037 304 106.802 297.500 L 106.567 291 100.509 291 L 94.452 291 95.432 297.500 M 109 297.500 L 109 304 115.500 304 L 122 304 122 297.500 L 122 291 115.500 291 L 109 291 109 297.500 M 197 297.500 L 197 304 200.383 304 C 204.112 304, 204.785 302.943, 205.949 295.250 L 206.592 291 201.796 291 L 197 291 197 297.500 M 103.583 296.866 C 103.152 297.563, 103.070 298.403, 103.400 298.733 C 104.295 299.628, 105.271 298.312, 104.787 296.862 C 104.449 295.846, 104.213 295.846, 103.583 296.866 M 110.597 296.844 C 110.251 297.404, 110.455 298.163, 111.050 298.531 C 112.588 299.481, 113.580 298.180, 112.296 296.896 C 111.578 296.178, 111.019 296.161, 110.597 296.844 M 190.639 296.694 C 189.513 297.820, 189.954 299, 191.500 299 C 192.325 299, 193 298.577, 193 298.059 C 193 296.798, 191.438 295.895, 190.639 296.694 M 198 297.417 C 198 298.288, 198.713 299, 199.583 299 C 201.349 299, 201.042 296.847, 199.188 296.229 C 198.534 296.011, 198 296.546, 198 297.417 M 101.500 307.064 C 99.300 307.423, 98.014 307.780, 98.642 307.858 C 99.269 307.936, 100.058 309.094, 100.393 310.432 C 101.228 313.757, 106.330 313.437, 106.835 310.028 C 107.294 306.927, 106.171 306.303, 101.500 307.064 M 109.184 309.750 C 109.411 311.728, 110.062 312.500, 111.500 312.500 C 112.892 312.500, 113.446 313.108, 113.324 314.500 C 113.160 316.366, 113.234 316.383, 114.434 314.750 C 115.142 313.788, 116.043 313, 116.437 313 C 116.831 313, 118.504 311.650, 120.154 310 L 123.154 307 116.011 307 L 108.867 307 109.184 309.750 M 183.694 307.639 C 182.601 308.733, 184.015 310.001, 186.309 309.985 C 188.090 309.972, 188.219 309.788, 187 309 C 185.667 308.138, 185.667 308.031, 187 308.031 C 187.825 308.031, 189.135 308.433, 189.912 308.925 C 191.109 309.682, 191.078 310.065, 189.705 311.438 C 188.719 312.423, 188.359 313.732, 188.783 314.779 C 189.370 316.224, 189.536 316.131, 189.818 314.192 C 190.256 311.189, 192.505 311.943, 192.484 315.086 C 192.468 317.425, 192.229 317.501, 184.755 317.529 C 176.744 317.558, 172.922 319.083, 176.008 321.019 C 176.829 321.533, 178.400 321.644, 179.500 321.266 C 180.600 320.887, 188.786 320.673, 197.690 320.790 C 213.109 320.993, 215.741 320.620, 214.184 318.452 C 213.407 317.370, 213.288 317.354, 204.637 317.150 C 198.672 317.009, 198.288 316.859, 198.509 314.750 C 198.835 311.643, 198.845 311.631, 200.250 312.762 C 202.056 314.218, 206.368 312.401, 205.636 310.494 C 205.321 309.672, 205.499 309, 206.031 309 C 206.564 309, 207 308.550, 207 308 C 207 307.450, 204.750 307, 202 307 L 197 307 197 312.500 C 197 316.722, 196.652 318, 195.500 318 C 194.348 318, 194 316.722, 194 312.500 L 194 307 189.167 307 C 186.508 307, 184.046 307.288, 183.694 307.639 M 199.629 309.523 C 199.153 310.766, 199.409 310.851, 201.023 309.988 C 203.341 308.747, 203.560 308, 201.607 308 C 200.841 308, 199.951 308.685, 199.629 309.523 M 235.750 312.689 C 233.036 313.399, 233.625 316, 236.500 316 C 238.333 316, 239 315.467, 239 314 C 239 311.962, 238.817 311.888, 235.750 312.689 M 241 314.167 C 241 315.469, 241.745 316, 243.573 316 C 245.438 316, 246.058 315.541, 245.823 314.332 C 245.361 311.948, 241 311.799, 241 314.167 M 278.250 312.706 C 275.142 313.304, 275.346 316, 278.500 316 C 280.333 316, 281 315.467, 281 314 C 281 312.900, 280.887 312.061, 280.750 312.136 C 280.613 312.211, 279.488 312.467, 278.250 312.706 M 269 314.500 C 269 315.500, 270 316, 272 316 C 274 316, 275 315.500, 275 314.500 C 275 313.500, 274 313, 272 313 C 270 313, 269 313.500, 269 314.500 M 88.574 317.759 C 88.258 318.075, 88 319.046, 87.999 319.917 C 87.999 321.315, 90.185 321.465, 106.749 321.202 C 127.546 320.871, 128.828 320.703, 127.031 318.538 C 126.070 317.379, 122.270 317.108, 107.493 317.142 C 97.403 317.166, 88.889 317.444, 88.574 317.759 M 234 320 C 234 321.467, 234.667 322, 236.500 322 C 238.333 322, 239 321.467, 239 320 C 239 318.533, 238.333 318, 236.500 318 C 234.667 318, 234 318.533, 234 320 M 241 320 C 241 322.091, 241.775 322.407, 244.418 321.393 C 246.947 320.423, 246.292 318, 243.500 318 C 241.667 318, 241 318.533, 241 320 M 269.185 319.750 C 269.385 320.805, 270.605 321.626, 272.259 321.816 C 274.465 322.071, 275 321.729, 275 320.066 C 275 318.426, 274.366 318, 271.927 318 C 269.540 318, 268.927 318.391, 269.185 319.750 M 276.193 319.750 C 276.519 321.433, 281.026 322.365, 281.008 320.746 C 281.004 320.336, 281 319.550, 281 319 C 281 318.450, 279.842 318, 278.427 318 C 276.513 318, 275.940 318.449, 276.193 319.750 M 234 324 C 234 324.550, 233.100 325, 232 325 C 230.900 325, 230 325.384, 230 325.854 C 230 327.074, 244.091 327.286, 247.036 326.110 C 248.781 325.414, 248.989 325.108, 247.750 325.063 C 246.787 325.029, 246 324.550, 246 324 C 246 322.551, 241.274 322.769, 240.583 324.250 C 240.117 325.250, 239.883 325.250, 239.417 324.250 C 238.726 322.769, 234 322.551, 234 324 M 269 324.469 C 269 325.316, 268.408 325.710, 267.601 325.400 C 266.832 325.105, 265.910 325.336, 265.553 325.914 C 265.117 326.619, 267.788 326.943, 273.680 326.900 C 283.508 326.828, 284.930 326.422, 282.310 324.436 C 280.031 322.708, 276.326 322.605, 275.662 324.250 C 275.259 325.250, 275.142 325.250, 275.079 324.250 C 274.963 322.415, 269 322.629, 269 324.469" stroke="none" fill="#8f6d35" fill-rule="evenodd"/><path d="M 0 180.003 L 0 360.005 180.250 359.753 L 360.500 359.500 360.753 179.750 L 361.005 0 180.503 0 L 0 0 0 180.003 M 0.489 180.500 C 0.489 279.500, 0.607 320.148, 0.750 270.829 C 0.893 221.510, 0.893 140.510, 0.750 90.829 C 0.607 41.148, 0.489 81.500, 0.489 180.500 M 137 95 L 137 98 151.500 98 L 166 98 166 95 L 166 92 151.500 92 L 137 92 137 95 M 136 116.500 C 136 122.275, 136.208 127, 136.463 127 C 136.717 127, 138.741 124.326, 140.960 121.058 C 145.565 114.278, 148.361 111.986, 151.973 112.032 C 155.232 112.073, 156.697 113.305, 161.446 120 C 163.592 123.025, 165.719 125.927, 166.174 126.450 C 166.628 126.972, 167 122.585, 167 116.700 L 167 106 151.500 106 L 136 106 136 116.500 M 146.785 128.993 C 143.485 133.327, 120.187 165.615, 99.156 195 C 95.023 200.775, 90.804 206.625, 89.781 208 C 87.311 211.321, 81 221.095, 81 221.600 C 81 221.820, 82.125 222, 83.500 222 C 84.875 222, 86 222.450, 86 223 C 86 223.550, 84.677 224, 83.059 224 C 81.441 224, 79.840 223.550, 79.500 223 C 79.160 222.450, 78.426 222, 77.870 222 C 77.313 222, 77.564 222.707, 78.429 223.571 C 79.293 224.436, 80 225.561, 80 226.071 C 80 226.582, 80.697 227, 81.548 227 C 82.908 227, 83.028 229.075, 82.530 244 C 82.027 259.065, 82.524 276.213, 84.846 323.958 C 85.491 337.224, 85.536 337.425, 88 338.108 C 89.375 338.489, 118.705 338.845, 153.179 338.900 C 207.759 338.987, 216.052 338.805, 217.363 337.494 C 218.627 336.230, 224.303 335.919, 252.684 335.559 C 271.283 335.323, 287.288 335.100, 288.250 335.065 C 289.835 335.006, 290 333.600, 290 320.113 L 290 305.225 281.250 305.363 C 276.438 305.438, 261.209 305.387, 247.408 305.250 L 222.317 305 221.220 301.250 C 220.470 298.683, 220.294 286.472, 220.664 262.536 C 221.129 232.423, 221.420 227.413, 222.764 226.430 C 223.623 225.803, 224.037 224.662, 223.686 223.895 C 221.873 219.938, 212.954 206.953, 194.071 180.777 C 191.007 176.530, 186.139 169.780, 183.253 165.777 C 180.368 161.775, 174.743 153.973, 170.753 148.441 C 159.314 132.577, 152.584 124.065, 151.500 124.090 C 150.950 124.103, 148.828 126.310, 146.785 128.993 M 153.156 157.500 C 153.081 163.428, 153.098 163.466, 154.607 160.683 C 155.612 158.830, 155.806 157.462, 155.175 156.683 C 154.647 156.032, 153.994 154.600, 153.724 153.500 C 153.453 152.400, 153.198 154.200, 153.156 157.500 M 146.754 153.689 C 145.356 154.054, 145.216 154.536, 146.054 156.101 C 146.629 157.176, 147.523 157.795, 148.039 157.476 C 148.555 157.157, 148.747 157.495, 148.466 158.227 C 148.186 158.959, 148.678 160.444, 149.560 161.529 C 151.004 163.305, 151.106 163.319, 150.582 161.668 C 150.262 160.661, 150 158.298, 150 156.418 C 150 154.538, 149.662 153.052, 149.250 153.116 C 148.838 153.180, 147.714 153.437, 146.754 153.689 M 142.517 158.125 C 142.919 159.431, 142.878 160.148, 142.426 159.719 C 141.281 158.630, 139.163 162.906, 139.745 165.132 C 140.129 166.602, 141.160 166.938, 145.023 166.851 L 149.823 166.743 146.832 161.881 C 143.372 156.259, 141.419 154.558, 142.517 158.125 M 156.631 161.500 L 152.980 167 159.490 167 C 163.454 167, 166 166.581, 166 165.928 C 166 164.912, 161.105 156, 160.547 156 C 160.402 156, 158.640 158.475, 156.631 161.500 M 142 170 C 140.800 170.776, 140.974 170.972, 142.872 170.985 C 144.860 170.998, 145.044 171.242, 144.009 172.489 C 143.329 173.308, 142.388 173.740, 141.916 173.448 C 141.444 173.157, 140.758 174.174, 140.391 175.709 C 140.024 177.244, 139.281 179.063, 138.740 179.750 C 137.988 180.704, 138.672 181.003, 141.628 181.014 C 143.757 181.021, 146.512 181.299, 147.750 181.630 C 149.917 182.211, 150 181.990, 150 175.617 L 150 169 146.750 169.015 C 144.963 169.024, 142.825 169.467, 142 170 M 153 175.548 L 153 182.095 159.154 181.798 L 165.307 181.500 165.729 175.250 L 166.151 169 159.576 169 L 153 169 153 175.548 M 147 176 C 147 176.550, 147.450 177, 148 177 C 148.550 177, 149 176.550, 149 176 C 149 175.450, 148.550 175, 148 175 C 147.450 175, 147 175.450, 147 176 M 154 175.941 C 154 176.459, 154.450 177.160, 155 177.500 C 155.550 177.840, 156 177.416, 156 176.559 C 156 175.702, 155.550 175, 155 175 C 154.450 175, 154 175.423, 154 175.941 M 138.986 185.250 C 138.979 185.938, 138.682 187.588, 138.326 188.919 C 137.797 190.893, 137.983 191.220, 139.339 190.700 C 140.253 190.350, 141 190.499, 141 191.031 C 141 191.564, 140.602 192, 140.117 192 C 139.631 192, 139.018 193.125, 138.755 194.500 C 138.306 196.852, 138.531 197, 142.557 197 C 144.911 197, 147.548 197.273, 148.418 197.607 C 149.769 198.125, 150 197.177, 150 191.107 L 150 184 144.500 184 C 140.774 184, 138.996 184.403, 138.986 185.250 M 153 191.125 L 153 198.250 156.125 197.625 C 157.844 197.281, 160.769 197, 162.625 197 L 166 197 166 190.500 L 166 184 159.500 184 L 153 184 153 191.125 M 147 191.559 C 147 192.416, 147.450 192.840, 148 192.500 C 148.550 192.160, 149 191.459, 149 190.941 C 149 190.423, 148.550 190, 148 190 C 147.450 190, 147 190.702, 147 191.559 M 154.192 191.075 C 154.389 191.666, 154.978 192.150, 155.500 192.150 C 156.022 192.150, 156.611 191.666, 156.808 191.075 C 157.005 190.484, 156.417 190, 155.500 190 C 154.583 190, 153.995 190.484, 154.192 191.075 M 140 200.525 C 140 200.813, 141.152 201.488, 142.560 202.023 C 144.118 202.615, 144.841 203.449, 144.406 204.153 C 143.930 204.923, 144.133 205.036, 145.015 204.490 C 145.998 203.883, 146.161 204.138, 145.647 205.477 C 145.063 206.999, 145.192 207.085, 146.467 206.027 C 147.729 204.980, 148.137 205.164, 148.927 207.136 C 149.728 209.136, 149.883 208.769, 149.937 204.750 L 150 200 145 200 C 142.250 200, 140 200.236, 140 200.525 M 153.063 204.702 C 153.117 208.738, 153.276 209.126, 154.070 207.145 C 154.774 205.387, 155.454 204.989, 156.756 205.573 C 157.715 206.003, 160.075 206.387, 162 206.427 C 165.238 206.495, 165.500 206.276, 165.500 203.500 C 165.500 200.518, 165.462 200.498, 159.250 200.202 L 153 199.905 153.063 204.702 M 122.563 220.250 C 120.210 225.978, 116.531 241.864, 117.364 242.696 C 118.028 243.359, 144.278 243.506, 179.377 243.043 L 186.255 242.952 185.758 238.726 C 185.485 236.402, 184.050 230.563, 182.570 225.750 L 179.879 217 151.888 217 L 123.898 217 122.563 220.250 M 103.737 221.596 C 102.188 223.146, 104.464 224, 110.142 224 C 114.515 224, 116.054 223.657, 115.754 222.750 C 115.312 221.409, 104.922 220.411, 103.737 221.596 M 188.233 222.200 C 188.521 223.063, 190.572 223.500, 194.333 223.500 C 202.172 223.500, 202.018 221.572, 194.150 221.200 C 189.286 220.970, 187.901 221.204, 188.233 222.200 M 70.441 223.095 C 69.041 225.360, 72.166 228.852, 76.201 229.534 C 78.365 229.900, 80.404 229.929, 80.734 229.599 C 81.064 229.270, 80.535 229, 79.560 229 C 78.368 229, 77.981 228.491, 78.382 227.448 C 78.723 226.558, 78.555 226.157, 77.989 226.507 C 77.445 226.843, 77 226.555, 77 225.868 C 77 225.180, 76.339 225.491, 75.532 226.559 C 74.705 227.652, 74.050 227.954, 74.032 227.250 C 74.014 226.563, 73.351 226, 72.557 226 C 71.653 226, 71.259 225.254, 71.500 224 C 71.926 221.790, 71.482 221.411, 70.441 223.095 M 89.500 223 C 89.840 223.550, 92.368 224, 95.118 224 C 98.197 224, 99.881 223.616, 99.500 223 C 99.160 222.450, 96.632 222, 93.882 222 C 90.803 222, 89.119 222.384, 89.500 223 M 205 223 C 205 223.550, 207.025 224, 209.500 224 C 211.975 224, 214 223.550, 214 223 C 214 222.450, 211.975 222, 209.500 222 C 207.025 222, 205 222.450, 205 223 M 218 223 C 218 223.550, 218.900 224, 220 224 C 221.100 224, 222 223.550, 222 223 C 222 222.450, 221.100 222, 220 222 C 218.900 222, 218 222.450, 218 223 M 231.609 223.422 C 231.931 224.262, 231.509 225.634, 230.671 226.471 C 228.756 228.387, 225.908 227.448, 226.719 225.167 C 227.046 224.250, 226.342 224.696, 225.156 226.158 C 223.970 227.619, 223 229.132, 223 229.519 C 223 230.488, 230.209 229.062, 231.750 227.788 C 233.243 226.555, 233.400 223.365, 232.011 222.507 C 231.448 222.159, 231.275 222.553, 231.609 223.422 M 103.186 256.490 C 101.984 258.019, 101 259.643, 101 260.100 C 101 260.557, 102.350 263.059, 104 265.661 L 107 270.392 106.930 263.946 C 106.891 260.401, 106.525 256.647, 106.116 255.606 C 105.429 253.856, 105.206 253.923, 103.186 256.490 M 109 263.696 L 109 270.392 112 265.661 C 115.513 260.122, 115.423 260.566, 113.429 258.571 C 110.136 255.279, 109 256.594, 109 263.696 M 192.090 259.378 C 191.314 260.320, 190.102 260.869, 189.397 260.599 C 188.691 260.328, 189.325 262.124, 190.807 264.589 L 193.500 269.072 193.815 266.018 C 193.988 264.339, 193.988 261.772, 193.815 260.315 C 193.526 257.881, 193.385 257.805, 192.090 259.378 M 196.792 263.764 C 196.577 266.919, 196.480 269.632, 196.576 269.793 C 196.951 270.417, 201 262.807, 201 261.478 C 201 260.704, 200.141 259.611, 199.092 259.049 C 197.334 258.108, 197.153 258.480, 196.792 263.764 M 97.144 265.750 C 96.098 268.195, 96.125 268.299, 97.388 266.690 C 98.169 265.695, 99.023 265.245, 99.287 265.690 C 100.190 267.220, 98.045 271.048, 95.774 271.960 C 94.025 272.663, 94.940 272.888, 99.741 272.937 L 105.982 273 102.905 268 C 101.213 265.250, 99.489 263, 99.075 263 C 98.660 263, 97.791 264.238, 97.144 265.750 M 114.609 265.509 C 113.724 266.879, 112.273 269.125, 111.385 270.500 L 109.770 273 113.635 272.900 C 116.643 272.823, 116.985 272.656, 115.177 272.147 L 112.854 271.494 115.378 267.775 C 116.766 265.730, 117.523 263.823, 117.060 263.537 C 116.597 263.251, 115.495 264.138, 114.609 265.509 M 186.665 266.326 C 187.044 268.659, 186.705 270.152, 185.531 271.326 C 183.966 272.891, 184.154 273, 188.429 273 C 190.943 273, 193 272.744, 193 272.430 C 193 271.689, 187.024 263, 186.515 263 C 186.301 263, 186.369 264.497, 186.665 266.326 M 199.760 269.038 L 197.019 273 201.510 273 C 206.191 273, 207.511 271.614, 203.915 270.473 C 202.303 269.961, 201.967 269.266, 202.434 267.406 C 203.233 264.222, 202.986 264.373, 199.760 269.038 M 94.131 282 L 94.046 288 100.523 288 L 107 288 107 282 L 107 276 100.607 276 L 94.215 276 94.131 282 M 109 282 L 109 288 115.500 288 C 119.075 288, 121.988 287.663, 121.972 287.250 C 121.957 286.837, 120.395 285.375, 118.500 284 C 114.521 281.112, 114.022 278.329, 117.250 277.031 C 119.033 276.314, 118.410 276.114, 114.250 276.063 L 109 276 109 282 M 185 278.757 C 185 280.273, 184.581 282.973, 184.070 284.757 L 183.140 288 188.570 288 L 194 288 194 282 L 194 276 189.500 276 C 185.255 276, 185 276.156, 185 278.757 M 197 282 L 197 288 201.500 288 C 204.751 288, 206 287.600, 206 286.559 C 206 285.766, 205.543 284.835, 204.984 284.490 C 204.425 284.144, 204.277 283.361, 204.655 282.749 C 205.034 282.137, 205.419 280.368, 205.511 278.818 C 205.670 276.135, 205.471 276, 201.339 276 L 197 276 197 282 M 103.667 281.667 C 102.516 282.817, 102.938 284, 104.500 284 C 105.325 284, 106 283.325, 106 282.500 C 106 280.938, 104.817 280.516, 103.667 281.667 M 110 282.500 C 110 283.417, 110.484 284.005, 111.075 283.808 C 111.666 283.611, 112.150 283.022, 112.150 282.500 C 112.150 281.978, 111.666 281.389, 111.075 281.192 C 110.484 280.995, 110 281.583, 110 282.500 M 191 282.500 C 191 283.325, 191.450 284, 192 284 C 192.550 284, 193 283.325, 193 282.500 C 193 281.675, 192.550 281, 192 281 C 191.450 281, 191 281.675, 191 282.500 M 198 282.500 C 198 283.325, 198.450 284, 199 284 C 199.550 284, 200 283.325, 200 282.500 C 200 281.675, 199.550 281, 199 281 C 198.450 281, 198 281.675, 198 282.500 M 188 290.918 C 181.997 291.553, 181.902 291.682, 181.636 299.500 L 181.500 303.500 187.750 303.798 L 194 304.095 194 297.048 C 194 293.171, 193.887 290.076, 193.750 290.168 C 193.613 290.261, 191.025 290.598, 188 290.918 M 95.432 297.500 L 96.411 304 101.724 304 L 107.037 304 106.802 297.500 L 106.567 291 100.509 291 L 94.452 291 95.432 297.500 M 109 297.500 L 109 304 115.500 304 L 122 304 122 297.500 L 122 291 115.500 291 L 109 291 109 297.500 M 197 297.500 L 197 304 200.383 304 C 204.112 304, 204.785 302.943, 205.949 295.250 L 206.592 291 201.796 291 L 197 291 197 297.500 M 103.583 296.866 C 103.152 297.563, 103.070 298.403, 103.400 298.733 C 104.295 299.628, 105.271 298.312, 104.787 296.862 C 104.449 295.846, 104.213 295.846, 103.583 296.866 M 110.597 296.844 C 110.251 297.404, 110.455 298.163, 111.050 298.531 C 112.588 299.481, 113.580 298.180, 112.296 296.896 C 111.578 296.178, 111.019 296.161, 110.597 296.844 M 190.639 296.694 C 189.513 297.820, 189.954 299, 191.500 299 C 192.325 299, 193 298.577, 193 298.059 C 193 296.798, 191.438 295.895, 190.639 296.694 M 198 297.417 C 198 298.288, 198.713 299, 199.583 299 C 201.349 299, 201.042 296.847, 199.188 296.229 C 198.534 296.011, 198 296.546, 198 297.417 M 101.500 307.064 C 99.300 307.423, 98.014 307.780, 98.642 307.858 C 99.269 307.936, 100.058 309.094, 100.393 310.432 C 101.228 313.757, 106.330 313.437, 106.835 310.028 C 107.294 306.927, 106.171 306.303, 101.500 307.064 M 109.184 309.750 C 109.411 311.728, 110.062 312.500, 111.500 312.500 C 112.892 312.500, 113.446 313.108, 113.324 314.500 C 113.160 316.366, 113.234 316.383, 114.434 314.750 C 115.142 313.788, 116.043 313, 116.437 313 C 116.831 313, 118.504 311.650, 120.154 310 L 123.154 307 116.011 307 L 108.867 307 109.184 309.750 M 183.694 307.639 C 182.601 308.733, 184.015 310.001, 186.309 309.985 C 188.090 309.972, 188.219 309.788, 187 309 C 185.667 308.138, 185.667 308.031, 187 308.031 C 187.825 308.031, 189.135 308.433, 189.912 308.925 C 191.109 309.682, 191.078 310.065, 189.705 311.438 C 188.719 312.423, 188.359 313.732, 188.783 314.779 C 189.370 316.224, 189.536 316.131, 189.818 314.192 C 190.256 311.189, 192.505 311.943, 192.484 315.086 C 192.468 317.425, 192.229 317.501, 184.755 317.529 C 176.744 317.558, 172.922 319.083, 176.008 321.019 C 176.829 321.533, 178.400 321.644, 179.500 321.266 C 180.600 320.887, 188.786 320.673, 197.690 320.790 C 213.109 320.993, 215.741 320.620, 214.184 318.452 C 213.407 317.370, 213.288 317.354, 204.637 317.150 C 198.672 317.009, 198.288 316.859, 198.509 314.750 C 198.835 311.643, 198.845 311.631, 200.250 312.762 C 202.056 314.218, 206.368 312.401, 205.636 310.494 C 205.321 309.672, 205.499 309, 206.031 309 C 206.564 309, 207 308.550, 207 308 C 207 307.450, 204.750 307, 202 307 L 197 307 197 312.500 C 197 316.722, 196.652 318, 195.500 318 C 194.348 318, 194 316.722, 194 312.500 L 194 307 189.167 307 C 186.508 307, 184.046 307.288, 183.694 307.639 M 199.629 309.523 C 199.153 310.766, 199.409 310.851, 201.023 309.988 C 203.341 308.747, 203.560 308, 201.607 308 C 200.841 308, 199.951 308.685, 199.629 309.523 M 235.750 312.689 C 233.036 313.399, 233.625 316, 236.500 316 C 238.333 316, 239 315.467, 239 314 C 239 311.962, 238.817 311.888, 235.750 312.689 M 241 314.167 C 241 315.469, 241.745 316, 243.573 316 C 245.438 316, 246.058 315.541, 245.823 314.332 C 245.361 311.948, 241 311.799, 241 314.167 M 278.250 312.706 C 275.142 313.304, 275.346 316, 278.500 316 C 280.333 316, 281 315.467, 281 314 C 281 312.900, 280.887 312.061, 280.750 312.136 C 280.613 312.211, 279.488 312.467, 278.250 312.706 M 269 314.500 C 269 315.500, 270 316, 272 316 C 274 316, 275 315.500, 275 314.500 C 275 313.500, 274 313, 272 313 C 270 313, 269 313.500, 269 314.500 M 88.574 317.759 C 88.258 318.075, 88 319.046, 87.999 319.917 C 87.999 321.315, 90.185 321.465, 106.749 321.202 C 127.546 320.871, 128.828 320.703, 127.031 318.538 C 126.070 317.379, 122.270 317.108, 107.493 317.142 C 97.403 317.166, 88.889 317.444, 88.574 317.759 M 234 320 C 234 321.467, 234.667 322, 236.500 322 C 238.333 322, 239 321.467, 239 320 C 239 318.533, 238.333 318, 236.500 318 C 234.667 318, 234 318.533, 234 320 M 241 320 C 241 322.091, 241.775 322.407, 244.418 321.393 C 246.947 320.423, 246.292 318, 243.500 318 C 241.667 318, 241 318.533, 241 320 M 269.185 319.750 C 269.385 320.805, 270.605 321.626, 272.259 321.816 C 274.465 322.071, 275 321.729, 275 320.066 C 275 318.426, 274.366 318, 271.927 318 C 269.540 318, 268.927 318.391, 269.185 319.750 M 276.193 319.750 C 276.519 321.433, 281.026 322.365, 281.008 320.746 C 281.004 320.336, 281 319.550, 281 319 C 281 318.450, 279.842 318, 278.427 318 C 276.513 318, 275.940 318.449, 276.193 319.750 M 234 324 C 234 324.550, 233.100 325, 232 325 C 230.900 325, 230 325.384, 230 325.854 C 230 327.074, 244.091 327.286, 247.036 326.110 C 248.781 325.414, 248.989 325.108, 247.750 325.063 C 246.787 325.029, 246 324.550, 246 324 C 246 322.551, 241.274 322.769, 240.583 324.250 C 240.117 325.250, 239.883 325.250, 239.417 324.250 C 238.726 322.769, 234 322.551, 234 324 M 269 324.469 C 269 325.316, 268.408 325.710, 267.601 325.400 C 266.832 325.105, 265.910 325.336, 265.553 325.914 C 265.117 326.619, 267.788 326.943, 273.680 326.900 C 283.508 326.828, 284.930 326.422, 282.310 324.436 C 280.031 322.708, 276.326 322.605, 275.662 324.250 C 275.259 325.250, 275.142 325.250, 275.079 324.250 C 274.963 322.415, 269 322.629, 269 324.469" stroke="none" fill="#f1f1f1" fill-rule="evenodd"/></svg>