<svg xmlns="http://www.w3.org/2000/svg" width="225" height="225" viewBox="0 0 225 225" version="1.1"><path d="M 83.033 37.005 C 53.826 55.632, 55.865 54.990, 50.954 47.100 L 48.215 42.699 45.740 46.600 C 42.691 51.403, 38.770 55.361, 34.357 58.089 C 32.510 59.230, 31 60.479, 31 60.866 C 31 61.253, 32.350 62.366, 34 63.341 C 35.650 64.316, 36.983 65.425, 36.962 65.807 C 36.941 66.188, 31.991 69.577, 25.962 73.337 L 15 80.174 15 97.600 L 15 115.025 18.750 112.653 C 20.812 111.349, 24.726 108.868, 27.446 107.141 C 30.166 105.413, 32.753 104, 33.196 104 C 33.638 104, 34 126.275, 34 153.500 L 34 203 110 203 L 186 203 186 182.650 L 186 162.301 188.900 157.983 C 190.495 155.608, 194.370 151.975, 197.511 149.910 L 203.223 146.154 199.348 144.178 C 194.917 141.917, 190.545 137.854, 187.859 133.500 C 186.302 130.977, 186.007 128.393, 186.004 117.250 C 186.002 109.963, 186.362 104, 186.804 104 C 187.247 104, 189.834 105.413, 192.554 107.141 C 195.274 108.868, 199.188 111.349, 201.250 112.653 L 205 115.025 205 97.589 L 205 80.153 185.250 67.691 C 174.387 60.837, 153.002 47.303, 137.727 37.615 C 122.451 27.927, 109.851 20.028, 109.727 20.062 C 109.602 20.096, 97.590 27.720, 83.033 37.005 M 85.276 41.251 C 71.952 49.638, 61.040 56.837, 61.026 57.250 C 61.012 57.663, 61.589 58, 62.309 58 C 63.029 58, 64.454 58.612, 65.477 59.359 C 67.210 60.627, 67.034 60.896, 62.887 63.326 C 57.446 66.514, 53.911 70.139, 50.701 75.821 L 48.259 80.142 45.139 75.071 C 43.423 72.282, 41.507 70, 40.882 70 C 40.258 70, 35.316 72.813, 29.901 76.250 L 20.056 82.500 20.028 94.309 C 20.006 103.499, 20.277 105.950, 21.250 105.361 C 21.938 104.945, 42.173 92.139, 66.217 76.903 L 109.934 49.201 153.717 76.905 C 177.798 92.141, 198.063 104.948, 198.750 105.363 C 199.723 105.951, 199.989 103.502, 199.949 94.309 L 199.897 82.500 180.699 70.387 C 170.139 63.725, 150.322 51.208, 136.659 42.571 C 122.997 33.934, 111.297 26.673, 110.659 26.434 C 110.022 26.196, 98.599 32.863, 85.276 41.251 M 43.779 56.195 L 39.057 61.088 43.645 65.485 L 48.233 69.881 53.093 65.097 L 57.953 60.313 55.540 59.022 C 54.213 58.311, 52.086 56.284, 50.814 54.516 L 48.500 51.301 43.779 56.195 M 73.750 77.775 L 38 100.480 38 149.240 L 38 198 68.426 198 L 98.851 198 99.176 166.226 L 99.500 134.451 102.810 127.731 C 107.945 117.305, 115.316 112.980, 127.876 113.022 C 139.499 113.060, 148.276 118.777, 152.002 128.736 C 153.846 133.664, 154 136.536, 154 166.038 L 154 198 168 198 L 182 198 182 179.312 C 182 157.748, 181.853 157.312, 172.266 150.389 C 166.916 146.526, 166.895 146.490, 169.112 145 C 170.339 144.175, 173.741 141.206, 176.671 138.402 L 182 133.304 181.999 116.902 L 181.998 100.500 146.093 77.750 C 126.345 65.237, 110.033 55.016, 109.844 55.035 C 109.655 55.054, 93.412 65.287, 73.750 77.775 M 116.014 119.190 C 110.286 122.140, 105.486 128.508, 104.092 135.006 C 103.445 138.023, 103 151.897, 103 169.049 L 103 198 126.500 198 L 150 198 150.069 193.750 C 150.107 191.412, 150.090 176.900, 150.032 161.500 C 149.926 133.602, 149.916 133.481, 147.364 128.199 C 143.557 120.319, 138.892 117.586, 128.574 117.190 C 121.720 116.928, 119.822 117.230, 116.014 119.190 M 54 140 L 54 161 67.500 161 L 81 161 81 140 L 81 119 67.500 119 L 54 119 54 140 M 57.700 122.633 C 57.315 123.018, 57 126.408, 57 130.167 L 57 137 67.544 137 L 78.088 137 77.794 129.750 L 77.500 122.500 67.950 122.216 C 62.698 122.060, 58.086 122.248, 57.700 122.633 M 179.882 141.912 L 175.380 146.526 180.001 151.013 L 184.623 155.500 189.112 150.993 L 193.601 146.486 188.993 141.892 L 184.385 137.298 179.882 141.912 M 57.208 149.750 L 57.500 157.500 67.500 157.500 L 77.500 157.500 77.792 149.750 L 78.084 142 67.500 142 L 56.916 142 57.208 149.750 M 109.200 156.200 C 107.657 157.743, 107.657 161.257, 109.200 162.800 C 112.833 166.433, 118.530 161.727, 116.068 157.126 C 114.817 154.789, 111.111 154.289, 109.200 156.200 M 110.431 159.112 C 109.677 160.332, 111.923 162.166, 113.202 161.375 C 113.641 161.104, 114 160.234, 114 159.441 C 114 157.744, 111.423 157.506, 110.431 159.112" stroke="none" fill="#0a0908" fill-rule="evenodd"/><path d="M -0 112.504 L -0 225.009 112.750 224.754 L 225.500 224.500 225.754 112.250 L 226.009 0 113.004 0 L 0 0 -0 112.504 M 0.483 113 C 0.483 174.875, 0.603 200.188, 0.750 169.250 C 0.897 138.313, 0.897 87.688, 0.750 56.750 C 0.603 25.813, 0.483 51.125, 0.483 113 M 83.033 37.005 C 53.826 55.632, 55.865 54.990, 50.954 47.100 L 48.215 42.699 45.740 46.600 C 42.691 51.403, 38.770 55.361, 34.357 58.089 C 32.510 59.230, 31 60.479, 31 60.866 C 31 61.253, 32.350 62.366, 34 63.341 C 35.650 64.316, 36.983 65.425, 36.962 65.807 C 36.941 66.188, 31.991 69.577, 25.962 73.337 L 15 80.174 15 97.600 L 15 115.025 18.750 112.653 C 20.812 111.349, 24.726 108.868, 27.446 107.141 C 30.166 105.413, 32.753 104, 33.196 104 C 33.638 104, 34 126.275, 34 153.500 L 34 203 110 203 L 186 203 186 182.650 L 186 162.301 188.900 157.983 C 190.495 155.608, 194.370 151.975, 197.511 149.910 L 203.223 146.154 199.348 144.178 C 194.917 141.917, 190.545 137.854, 187.859 133.500 C 186.302 130.977, 186.007 128.393, 186.004 117.250 C 186.002 109.963, 186.362 104, 186.804 104 C 187.247 104, 189.834 105.413, 192.554 107.141 C 195.274 108.868, 199.188 111.349, 201.250 112.653 L 205 115.025 205 97.589 L 205 80.153 185.250 67.691 C 174.387 60.837, 153.002 47.303, 137.727 37.615 C 122.451 27.927, 109.851 20.028, 109.727 20.062 C 109.602 20.096, 97.590 27.720, 83.033 37.005 M 85.276 41.251 C 71.952 49.638, 61.040 56.837, 61.026 57.250 C 61.012 57.663, 61.589 58, 62.309 58 C 63.029 58, 64.454 58.612, 65.477 59.359 C 67.210 60.627, 67.034 60.896, 62.887 63.326 C 57.446 66.514, 53.911 70.139, 50.701 75.821 L 48.259 80.142 45.139 75.071 C 43.423 72.282, 41.507 70, 40.882 70 C 40.258 70, 35.316 72.813, 29.901 76.250 L 20.056 82.500 20.028 94.309 C 20.006 103.499, 20.277 105.950, 21.250 105.361 C 21.938 104.945, 42.173 92.139, 66.217 76.903 L 109.934 49.201 153.717 76.905 C 177.798 92.141, 198.063 104.948, 198.750 105.363 C 199.723 105.951, 199.989 103.502, 199.949 94.309 L 199.897 82.500 180.699 70.387 C 170.139 63.725, 150.322 51.208, 136.659 42.571 C 122.997 33.934, 111.297 26.673, 110.659 26.434 C 110.022 26.196, 98.599 32.863, 85.276 41.251 M 43.779 56.195 L 39.057 61.088 43.645 65.485 L 48.233 69.881 53.093 65.097 L 57.953 60.313 55.540 59.022 C 54.213 58.311, 52.086 56.284, 50.814 54.516 L 48.500 51.301 43.779 56.195 M 73.750 77.775 L 38 100.480 38 149.240 L 38 198 68.426 198 L 98.851 198 99.176 166.226 L 99.500 134.451 102.810 127.731 C 107.945 117.305, 115.316 112.980, 127.876 113.022 C 139.499 113.060, 148.276 118.777, 152.002 128.736 C 153.846 133.664, 154 136.536, 154 166.038 L 154 198 168 198 L 182 198 182 179.312 C 182 157.748, 181.853 157.312, 172.266 150.389 C 166.916 146.526, 166.895 146.490, 169.112 145 C 170.339 144.175, 173.741 141.206, 176.671 138.402 L 182 133.304 181.999 116.902 L 181.998 100.500 146.093 77.750 C 126.345 65.237, 110.033 55.016, 109.844 55.035 C 109.655 55.054, 93.412 65.287, 73.750 77.775 M 116.014 119.190 C 110.286 122.140, 105.486 128.508, 104.092 135.006 C 103.445 138.023, 103 151.897, 103 169.049 L 103 198 126.500 198 L 150 198 150.069 193.750 C 150.107 191.412, 150.090 176.900, 150.032 161.500 C 149.926 133.602, 149.916 133.481, 147.364 128.199 C 143.557 120.319, 138.892 117.586, 128.574 117.190 C 121.720 116.928, 119.822 117.230, 116.014 119.190 M 54 140 L 54 161 67.500 161 L 81 161 81 140 L 81 119 67.500 119 L 54 119 54 140 M 57.700 122.633 C 57.315 123.018, 57 126.408, 57 130.167 L 57 137 67.544 137 L 78.088 137 77.794 129.750 L 77.500 122.500 67.950 122.216 C 62.698 122.060, 58.086 122.248, 57.700 122.633 M 179.882 141.912 L 175.380 146.526 180.001 151.013 L 184.623 155.500 189.112 150.993 L 193.601 146.486 188.993 141.892 L 184.385 137.298 179.882 141.912 M 57.208 149.750 L 57.500 157.500 67.500 157.500 L 77.500 157.500 77.792 149.750 L 78.084 142 67.500 142 L 56.916 142 57.208 149.750 M 109.200 156.200 C 107.657 157.743, 107.657 161.257, 109.200 162.800 C 112.833 166.433, 118.530 161.727, 116.068 157.126 C 114.817 154.789, 111.111 154.289, 109.200 156.200 M 110.431 159.112 C 109.677 160.332, 111.923 162.166, 113.202 161.375 C 113.641 161.104, 114 160.234, 114 159.441 C 114 157.744, 111.423 157.506, 110.431 159.112" stroke="none" fill="#f2dbcd" fill-rule="evenodd"/></svg>