<svg xmlns="http://www.w3.org/2000/svg" width="512" height="512" viewBox="0 0 512 512" version="1.1"><path d="M 390.035 49.934 C 389.466 50.998, 389 54.823, 389 58.434 C 389 65.253, 390.950 69, 394.500 69 C 398.050 69, 400 65.253, 400 58.434 C 400 50.013, 398.939 48, 394.500 48 C 392.133 48, 390.750 48.599, 390.035 49.934 M 346.571 67.571 C 343.975 70.168, 344.756 72.825, 349.656 78.063 C 355.052 83.832, 358.189 85.044, 361.040 82.464 C 364.220 79.586, 363.407 76.834, 357.719 71.216 C 352.212 65.778, 349.313 64.830, 346.571 67.571 M 431.216 71.281 C 425.621 76.946, 424.838 79.638, 427.960 82.464 C 430.811 85.044, 433.948 83.832, 439.344 78.063 C 444.244 72.825, 445.025 70.168, 442.429 67.571 C 439.631 64.774, 436.677 65.751, 431.216 71.281 M 101.655 72.829 C 99.916 74.750, 99.526 77.728, 100.765 79.624 C 101.169 80.243, 103.876 81.767, 106.779 83.010 C 113.065 85.703, 119.710 92.664, 123.617 100.650 C 128.127 109.867, 132.577 109.857, 137.109 100.619 C 138.760 97.254, 141.411 93.059, 143 91.297 C 146.839 87.039, 153.883 82, 155.995 82 C 158.277 82, 161 78.841, 161 76.194 C 161 75.011, 159.886 73.316, 158.521 72.422 C 156.256 70.938, 155.646 70.933, 151.459 72.359 C 145.356 74.439, 137.731 80.155, 133.849 85.561 L 130.693 89.955 124.815 83.540 C 120.928 79.297, 116.861 76.087, 112.809 74.062 C 105.708 70.514, 103.928 70.317, 101.655 72.829 M 382.597 76.993 C 370.869 80.739, 361.333 89.682, 356.700 101.281 C 355.133 105.201, 354.611 108.739, 354.600 115.500 C 354.587 123.619, 354.914 125.209, 357.937 131.741 C 363.604 143.986, 374.425 152.409, 387.896 155.059 C 403.389 158.107, 421.090 149.604, 429.825 134.918 C 435.338 125.649, 436.232 111.941, 432.040 100.934 C 424.552 81.267, 402.558 70.618, 382.597 76.993 M 387.500 85.877 C 365.560 91.689, 357.132 118.414, 371.926 135.262 C 376.259 140.198, 380.467 142.649, 387.860 144.543 C 406.443 149.303, 424.385 135.037, 424.385 115.500 C 424.385 103.662, 418.324 93.807, 407.700 88.371 C 402.508 85.715, 392.689 84.503, 387.500 85.877 M 185.515 93.336 C 183.031 97.128, 184.323 99.273, 190.914 102.298 C 197.906 105.508, 204.403 112.264, 208.609 120.701 C 211.306 126.111, 211.735 126.500, 215 126.500 C 218.265 126.500, 218.694 126.111, 221.391 120.701 C 225.419 112.621, 232.040 105.599, 238.522 102.533 C 245.152 99.396, 246.813 96.889, 244.548 93.433 C 243.552 91.913, 242.001 91, 240.414 91 C 235.664 91, 227.059 96.182, 220.931 102.732 L 215 109.073 209.096 102.762 C 203.017 96.263, 196.610 92.298, 190.620 91.326 C 187.726 90.856, 186.936 91.167, 185.515 93.336 M 328.571 111.571 C 326.316 113.827, 326.630 117.628, 329.223 119.443 C 332.658 121.850, 343.435 121.565, 346 119 C 348.491 116.509, 348.554 113.811, 346.171 111.655 C 343.647 109.370, 330.833 109.309, 328.571 111.571 M 442.557 112.223 C 440.499 115.160, 440.593 116.593, 443 119 C 444.575 120.575, 446.333 121, 451.277 121 C 458.847 121, 462 119.229, 462 114.978 C 462 111.070, 459.663 110, 451.122 110 C 445.013 110, 443.914 110.285, 442.557 112.223 M 174.500 143.971 C 172.850 144.349, 170.343 145.298, 168.930 146.079 C 162.133 149.837, 34.725 243.577, 32.866 246.188 C 30.466 249.559, 29.421 256.100, 30.426 261.459 C 31.193 265.545, 35.899 271.379, 40.237 273.623 C 44.999 276.085, 53.321 275.588, 58.540 272.529 L 63 269.916 63 344.958 L 63 420 55.071 420 C 43.598 420, 44 419.188, 44 442.371 C 44 455.994, 44.350 461.950, 45.200 462.800 C 46.947 464.547, 465.053 464.547, 466.800 462.800 C 467.650 461.950, 468 455.994, 468 442.371 C 468 426.224, 467.748 422.891, 466.429 421.571 C 465.081 420.224, 461.167 420, 438.929 420 C 424.668 420, 413 419.845, 413 419.657 C 413 419.468, 413.918 416.655, 415.040 413.407 C 420.100 398.761, 425.186 374.982, 427.533 355.006 C 429.381 339.268, 429.394 301.757, 427.556 285.500 C 426.810 278.900, 426.353 273.340, 426.540 273.144 C 426.727 272.947, 437.575 278.925, 450.647 286.427 C 463.719 293.929, 475.061 299.939, 475.851 299.783 C 481.710 298.628, 484.072 281.180, 480.127 268.193 C 476.042 254.743, 465.315 242.857, 453.255 238.419 C 450.640 237.457, 448.140 236.361, 447.699 235.984 C 447.259 235.607, 452.659 232.016, 459.699 228.004 C 479.671 216.623, 480 216.381, 480 213.115 C 480 207.407, 467.515 198.630, 454.735 195.352 C 438.623 191.219, 418.462 197.994, 408.215 210.983 L 404.531 215.653 401.749 211.812 C 400.219 209.700, 396.263 205.981, 392.958 203.548 C 374.740 190.136, 350.569 191.148, 333.696 206.028 C 329.630 209.614, 328.940 210.741, 329.196 213.373 C 329.477 216.249, 330.671 217.160, 345.072 225.491 C 353.636 230.446, 360.748 234.897, 360.875 235.381 C 361.002 235.866, 358.692 237.244, 355.740 238.444 C 349.060 241.159, 346.816 242.708, 340.386 249.045 C 331.405 257.895, 326.931 269.127, 327.077 282.460 C 327.176 291.561, 328.850 297.058, 332.071 298.866 C 334.483 300.220, 335.715 299.630, 360.887 285.065 C 375.350 276.697, 387.470 270.137, 387.822 270.488 C 388.173 270.840, 388.342 278.411, 388.197 287.314 C 387.474 331.704, 377.931 376.854, 361.901 411.714 L 358.092 420 325.546 420 L 293 420 293 344.958 L 293 269.916 297.338 272.458 C 304.650 276.743, 314.388 275.783, 320.373 270.186 C 324.183 266.624, 326.004 262.113, 325.984 256.282 C 325.950 246.626, 327.214 247.718, 256.473 196.201 C 220.738 170.177, 189.700 147.840, 187.500 146.563 C 182.809 143.841, 178.670 143.016, 174.500 143.971 M 350.216 152.281 C 344.621 157.946, 343.838 160.638, 346.960 163.464 C 349.811 166.044, 352.948 164.832, 358.344 159.063 C 363.244 153.825, 364.025 151.168, 361.429 148.571 C 358.631 145.774, 355.677 146.751, 350.216 152.281 M 427.571 148.571 C 424.975 151.168, 425.756 153.825, 430.656 159.063 C 436.052 164.832, 439.189 166.044, 442.040 163.464 C 445.220 160.586, 444.407 157.834, 438.719 152.216 C 433.212 146.778, 430.313 145.830, 427.571 148.571 M 110 201.073 C 74.525 226.906, 44.263 249.195, 42.750 250.605 C 37.135 255.841, 40.686 265, 48.332 265 C 51.260 265, 60.575 258.584, 112.905 220.520 C 146.538 196.056, 174.943 175.566, 176.028 174.985 C 177.412 174.244, 178.588 174.244, 179.972 174.985 C 181.057 175.566, 209.462 196.056, 243.095 220.520 C 309.706 268.971, 308.086 268.005, 313.545 262.545 C 316.249 259.841, 316.815 254.654, 314.707 251.886 C 314.031 250.998, 283.703 228.610, 247.311 202.136 C 190.836 161.051, 180.657 154.008, 177.822 154.052 C 175.059 154.096, 163.652 162.004, 110 201.073 M 390.557 164.223 C 388.229 167.546, 388.413 179.159, 390.829 181.345 C 393.228 183.516, 396.287 183.445, 398.345 181.171 C 399.525 179.868, 400 177.491, 400 172.894 C 400 165.531, 398.217 162, 394.500 162 C 393.167 162, 391.426 162.982, 390.557 164.223 M 124.792 223.818 L 73.085 261.500 73.042 340.750 L 73 420 82.500 420 L 92 420 92 369.571 C 92 325.061, 92.184 318.958, 93.571 317.571 C 94.939 316.204, 99.600 316, 129.500 316 C 159.400 316, 164.061 316.204, 165.429 317.571 C 166.816 318.958, 167 325.061, 167 369.571 L 167 420 225 420 L 283 420 282.946 340.750 L 282.893 261.500 231.271 224 C 202.879 203.375, 178.941 186.418, 178.075 186.318 C 177.209 186.218, 153.232 203.093, 124.792 223.818 M 357.355 204.983 C 352.806 205.945, 343 210.591, 343 211.784 C 343 213.881, 393.309 241, 397.199 241 C 397.498 241, 398.054 237.827, 398.436 233.950 C 399.067 227.548, 398.902 226.508, 396.636 222.642 C 393.250 216.863, 385.937 210.317, 379.675 207.458 C 373.817 204.784, 363.636 203.655, 357.355 204.983 M 435.384 205.412 C 421.092 208.880, 410.026 221.205, 408.027 235.879 C 406.987 243.512, 407.421 244.274, 411.453 241.895 C 413.268 240.824, 417.485 238.877, 420.825 237.569 C 428.942 234.388, 466.122 212.865, 465.698 211.593 C 465.174 210.023, 456.999 206.198, 451.701 205.045 C 445.717 203.742, 441.910 203.828, 435.384 205.412 M 170 223.876 C 161.411 226.702, 154.973 232.128, 150.870 240 C 148.946 243.691, 148.524 246.028, 148.524 253 C 148.524 262.335, 150.117 266.647, 156.075 273.432 C 164.076 282.545, 179.733 285.332, 191.224 279.689 C 218.702 266.196, 210.116 224.711, 179.567 223.365 C 175.680 223.193, 171.375 223.423, 170 223.876 M 169.500 234.662 C 159.284 240.047, 155.244 251.336, 159.880 261.541 C 166.623 276.386, 187.954 276.715, 195.673 262.093 C 200.921 252.152, 196.996 240.137, 186.790 234.903 C 182.234 232.566, 173.700 232.447, 169.500 234.662 M 363.286 246.451 C 348.567 251.051, 338.594 263.527, 337.300 278.960 C 336.903 283.701, 337.063 286, 337.790 286 C 338.750 286, 374.985 265.490, 390.377 256.235 L 396.255 252.701 393.877 250.852 C 387.508 245.899, 372.130 243.687, 363.286 246.451 M 425.500 246.343 C 419.183 248.439, 412.679 252.083, 413.631 252.992 C 414.109 253.448, 425.975 260.434, 440 268.515 C 454.025 276.597, 467.027 284.138, 468.892 285.274 L 472.285 287.339 471.795 279.700 C 470.898 265.736, 462.865 254.032, 450.195 248.232 C 443.443 245.140, 431.805 244.250, 425.500 246.343 M 401.250 261.220 C 399.094 262.261, 399 262.829, 398.996 274.903 C 398.994 281.831, 398.702 293.186, 398.347 300.135 C 397.713 312.577, 397.738 312.789, 399.986 313.992 C 402.797 315.497, 412.900 316.493, 416.411 315.612 C 418.770 315.020, 419 314.512, 419 309.903 C 419 303.401, 417.108 282.657, 415.639 273.047 C 414.558 265.972, 414.297 265.455, 410.500 262.831 C 406.150 259.825, 404.676 259.568, 401.250 261.220 M 186.200 317.200 C 185.317 318.083, 185 326.773, 185 350.078 C 185 378.423, 185.175 381.899, 186.666 383.128 C 188.028 384.249, 195.100 384.441, 225.400 384.178 C 249.369 383.971, 262.915 383.486, 263.734 382.806 C 265.512 381.330, 265.575 318.975, 263.800 317.200 C 262.078 315.478, 187.922 315.478, 186.200 317.200 M 394.154 338.601 C 392.351 350.244, 392.139 353.468, 393.137 354.085 C 395.607 355.611, 406.584 356.958, 411.651 356.357 C 417.784 355.628, 417.648 355.993, 418.627 337.688 L 419.280 325.500 411.890 325.500 C 407.825 325.500, 402.685 325.139, 400.466 324.699 L 396.432 323.897 394.154 338.601 M 102 373 L 102 420 129.500 420 L 157 420 157 373 L 157 326 129.500 326 L 102 326 102 373 M 194 335.500 L 194 345 207 345 L 220 345 220 335.500 L 220 326 207 326 L 194 326 194 335.500 M 230 335.500 L 230 345 242.500 345 L 255 345 255 335.500 L 255 326 242.500 326 L 230 326 230 335.500 M 194.425 356.334 C 194.144 357.067, 194.046 361.455, 194.207 366.084 L 194.500 374.500 207.250 374.780 L 220 375.060 220 365.030 L 220 355 207.469 355 C 197.947 355, 194.814 355.320, 194.425 356.334 M 230 365 L 230 375.060 242.750 374.780 L 255.500 374.500 255.500 365 L 255.500 355.500 242.750 355.220 L 230 354.940 230 365 M 139.035 364.934 C 137.593 367.629, 137.717 380.317, 139.200 381.800 C 141.109 383.709, 144.750 383.195, 146.443 380.777 C 147.399 379.413, 148 376.409, 148 373 C 148 369.591, 147.399 366.587, 146.443 365.223 C 144.515 362.469, 140.439 362.310, 139.035 364.934 M 386.544 374.164 C 383.121 386.594, 378.395 400.002, 373.564 410.991 C 371.604 415.449, 370 419.300, 370 419.548 C 370 419.797, 377.211 420, 386.025 420 L 402.050 420 403.108 417.250 C 405.412 411.261, 410.906 390.935, 412.906 381 C 414.068 375.225, 415.264 369.426, 415.563 368.114 C 416.089 365.806, 415.952 365.745, 411.369 366.262 C 406.996 366.755, 399.964 366.094, 392.445 364.483 L 389.390 363.828 386.544 374.164 M 54 442 L 54 454 256 454 L 458 454 458 442 L 458 430 256 430 L 54 430 54 442" stroke="none" fill="#050505" fill-rule="evenodd"/><path d="M 387.500 85.877 C 365.560 91.689, 357.132 118.414, 371.926 135.262 C 376.259 140.198, 380.467 142.649, 387.860 144.543 C 406.443 149.303, 424.385 135.037, 424.385 115.500 C 424.385 103.662, 418.324 93.807, 407.700 88.371 C 402.508 85.715, 392.689 84.503, 387.500 85.877 M 110 201.073 C 74.525 226.906, 44.263 249.195, 42.750 250.605 C 37.135 255.841, 40.686 265, 48.332 265 C 51.260 265, 60.575 258.584, 112.905 220.520 C 146.538 196.056, 174.943 175.566, 176.028 174.985 C 177.412 174.244, 178.588 174.244, 179.972 174.985 C 181.057 175.566, 209.462 196.056, 243.095 220.520 C 309.706 268.971, 308.086 268.005, 313.545 262.545 C 316.249 259.841, 316.815 254.654, 314.707 251.886 C 314.031 250.998, 283.703 228.610, 247.311 202.136 C 190.836 161.051, 180.657 154.008, 177.822 154.052 C 175.059 154.096, 163.652 162.004, 110 201.073 M 124.792 223.818 L 73.085 261.500 73.042 340.750 L 73 420 82.500 420 L 92 420 92 369.571 C 92 325.061, 92.184 318.958, 93.571 317.571 C 94.939 316.204, 99.600 316, 129.500 316 C 159.400 316, 164.061 316.204, 165.429 317.571 C 166.816 318.958, 167 325.061, 167 369.571 L 167 420 225 420 L 283 420 282.946 340.750 L 282.893 261.500 231.271 224 C 202.879 203.375, 178.941 186.418, 178.075 186.318 C 177.209 186.218, 153.232 203.093, 124.792 223.818 M 357.355 204.983 C 352.806 205.945, 343 210.591, 343 211.784 C 343 213.881, 393.309 241, 397.199 241 C 397.498 241, 398.054 237.827, 398.436 233.950 C 399.067 227.548, 398.902 226.508, 396.636 222.642 C 393.250 216.863, 385.937 210.317, 379.675 207.458 C 373.817 204.784, 363.636 203.655, 357.355 204.983 M 435.384 205.412 C 421.092 208.880, 410.026 221.205, 408.027 235.879 C 406.987 243.512, 407.421 244.274, 411.453 241.895 C 413.268 240.824, 417.485 238.877, 420.825 237.569 C 428.942 234.388, 466.122 212.865, 465.698 211.593 C 465.174 210.023, 456.999 206.198, 451.701 205.045 C 445.717 203.742, 441.910 203.828, 435.384 205.412 M 170 223.876 C 161.411 226.702, 154.973 232.128, 150.870 240 C 148.946 243.691, 148.524 246.028, 148.524 253 C 148.524 262.335, 150.117 266.647, 156.075 273.432 C 164.076 282.545, 179.733 285.332, 191.224 279.689 C 218.702 266.196, 210.116 224.711, 179.567 223.365 C 175.680 223.193, 171.375 223.423, 170 223.876 M 169.500 234.662 C 159.284 240.047, 155.244 251.336, 159.880 261.541 C 166.623 276.386, 187.954 276.715, 195.673 262.093 C 200.921 252.152, 196.996 240.137, 186.790 234.903 C 182.234 232.566, 173.700 232.447, 169.500 234.662 M 363.286 246.451 C 348.567 251.051, 338.594 263.527, 337.300 278.960 C 336.903 283.701, 337.063 286, 337.790 286 C 338.750 286, 374.985 265.490, 390.377 256.235 L 396.255 252.701 393.877 250.852 C 387.508 245.899, 372.130 243.687, 363.286 246.451 M 425.500 246.343 C 419.183 248.439, 412.679 252.083, 413.631 252.992 C 414.109 253.448, 425.975 260.434, 440 268.515 C 454.025 276.597, 467.027 284.138, 468.892 285.274 L 472.285 287.339 471.795 279.700 C 470.898 265.736, 462.865 254.032, 450.195 248.232 C 443.443 245.140, 431.805 244.250, 425.500 246.343 M 401.250 261.220 C 399.094 262.261, 399 262.829, 398.996 274.903 C 398.994 281.831, 398.702 293.186, 398.347 300.135 C 397.713 312.577, 397.738 312.789, 399.986 313.992 C 402.797 315.497, 412.900 316.493, 416.411 315.612 C 418.770 315.020, 419 314.512, 419 309.903 C 419 303.401, 417.108 282.657, 415.639 273.047 C 414.558 265.972, 414.297 265.455, 410.500 262.831 C 406.150 259.825, 404.676 259.568, 401.250 261.220 M 186.200 317.200 C 185.317 318.083, 185 326.773, 185 350.078 C 185 378.423, 185.175 381.899, 186.666 383.128 C 188.028 384.249, 195.100 384.441, 225.400 384.178 C 249.369 383.971, 262.915 383.486, 263.734 382.806 C 265.512 381.330, 265.575 318.975, 263.800 317.200 C 262.078 315.478, 187.922 315.478, 186.200 317.200 M 394.154 338.601 C 392.351 350.244, 392.139 353.468, 393.137 354.085 C 395.607 355.611, 406.584 356.958, 411.651 356.357 C 417.784 355.628, 417.648 355.993, 418.627 337.688 L 419.280 325.500 411.890 325.500 C 407.825 325.500, 402.685 325.139, 400.466 324.699 L 396.432 323.897 394.154 338.601 M 102 373 L 102 420 129.500 420 L 157 420 157 373 L 157 326 129.500 326 L 102 326 102 373 M 194 335.500 L 194 345 207 345 L 220 345 220 335.500 L 220 326 207 326 L 194 326 194 335.500 M 230 335.500 L 230 345 242.500 345 L 255 345 255 335.500 L 255 326 242.500 326 L 230 326 230 335.500 M 194.425 356.334 C 194.144 357.067, 194.046 361.455, 194.207 366.084 L 194.500 374.500 207.250 374.780 L 220 375.060 220 365.030 L 220 355 207.469 355 C 197.947 355, 194.814 355.320, 194.425 356.334 M 230 365 L 230 375.060 242.750 374.780 L 255.500 374.500 255.500 365 L 255.500 355.500 242.750 355.220 L 230 354.940 230 365 M 139.035 364.934 C 137.593 367.629, 137.717 380.317, 139.200 381.800 C 141.109 383.709, 144.750 383.195, 146.443 380.777 C 147.399 379.413, 148 376.409, 148 373 C 148 369.591, 147.399 366.587, 146.443 365.223 C 144.515 362.469, 140.439 362.310, 139.035 364.934 M 386.544 374.164 C 383.121 386.594, 378.395 400.002, 373.564 410.991 C 371.604 415.449, 370 419.300, 370 419.548 C 370 419.797, 377.211 420, 386.025 420 L 402.050 420 403.108 417.250 C 405.412 411.261, 410.906 390.935, 412.906 381 C 414.068 375.225, 415.264 369.426, 415.563 368.114 C 416.089 365.806, 415.952 365.745, 411.369 366.262 C 406.996 366.755, 399.964 366.094, 392.445 364.483 L 389.390 363.828 386.544 374.164 M 54 442 L 54 454 256 454 L 458 454 458 442 L 458 430 256 430 L 54 430 54 442" stroke="none" fill="#e8d5a9" fill-rule="evenodd"/></svg>